<svg width="92" height="120" viewBox="0 0 92 120" fill="none" xmlns="http://www.w3.org/2000/svg">
<rect x="-28" width="120" height="120" rx="60" fill="#FFADF2"/>
<g clip-path="url(#clip0_1_54)">
<path d="M63.1825 55.5622C62.9498 56.687 61.9801 57.424 60.8941 57.424C60.7389 57.424 60.5837 57.424 60.4674 57.3852C59.1874 57.1525 58.3728 55.9113 58.6444 54.6701C60.4286 45.5549 56.4334 38.767 48.2104 36.9052C40.7244 35.2374 33.6262 42.607 33.5486 42.6846C33.1219 43.1501 32.5013 43.4216 31.8419 43.4216C31.2213 43.4216 30.6007 43.1501 30.1353 42.6846C30.0577 42.607 22.9595 35.2374 15.4734 36.9052C7.2892 38.767 3.29405 45.5549 5.03951 54.6701C5.27224 55.9113 4.45769 57.1525 3.21647 57.3852C1.97526 57.618 0.734049 56.8034 0.501322 55.5622C-0.623526 49.744 0.152238 44.4689 2.75103 40.2798C4.768 37.0604 7.75466 34.6555 11.4783 33.2592C12.4092 32.9101 13.4177 32.5998 14.465 32.367C22.0674 30.6604 28.8165 35.3149 31.8419 37.9137C34.8674 35.3149 41.6165 30.6604 49.2189 32.367C52.128 33.0264 54.688 34.1901 56.8213 35.8192C58.4504 37.0604 59.8468 38.5343 60.9328 40.2798C63.5316 44.4301 64.3074 49.7052 63.1825 55.5622Z" fill="#C622AC"/>
<path d="M44.1377 73.7925C44.1377 73.7925 48.6758 67.7416 50.111 66.2289C50.111 66.2289 51.7013 64.4834 52.7486 66.0737L51.1971 70.224L44.9522 76.5077L41.7716 76.7404L44.1377 73.7925Z" fill="#FF60E6"/>
<path fill-rule="evenodd" clip-rule="evenodd" d="M52.903 65.9181C52.989 65.982 53.0069 66.1035 52.9431 66.1895C51.4757 68.1655 49.0578 70.4846 47.0158 72.3035C45.9931 73.2145 45.0616 74.0027 44.3857 74.5631C44.0478 74.8434 43.7737 75.0668 43.5839 75.2202C43.4891 75.2969 43.4153 75.3561 43.3652 75.3962L43.3081 75.4417L43.2887 75.4571C43.2887 75.4572 43.2884 75.4574 43.168 75.3054C43.0476 75.1533 43.0476 75.1533 43.0476 75.1533L43.0666 75.1382L43.1229 75.0933C43.1725 75.0536 43.2458 74.9948 43.3401 74.9186C43.5287 74.7661 43.8015 74.5437 44.1381 74.2646C44.8114 73.7062 45.7393 72.9211 46.7578 72.0139C48.7982 70.1964 51.1899 67.8998 52.6317 65.9582C52.6955 65.8722 52.817 65.8543 52.903 65.9181ZM43.0159 75.4258C42.9495 75.3418 42.9637 75.2198 43.0476 75.1533L43.168 75.3054L43.2884 75.4574C43.2044 75.5239 43.0824 75.5097 43.0159 75.4258Z" fill="#C622AC"/>
<path d="M19.5074 73.7925C19.5074 73.7925 14.9692 67.7416 13.5341 66.2289C13.5341 66.2289 11.9438 64.4834 10.8965 66.0737L12.448 70.224L18.7316 76.5465L21.9122 76.7792L19.5074 73.7925Z" fill="#FF60E6"/>
<path d="M52.7874 66.0738C49.9947 69.7587 43.168 75.3053 43.168 75.3053C45.185 72.7841 46.7365 67.3926 43.7886 67.6641C41.9268 67.8193 41.6553 70.4569 35.7595 75.0338C35.7207 75.0726 35.682 75.0726 35.682 75.1114C33.4323 76.8957 30.2904 76.8957 28.0407 75.1114C28.0019 75.0726 27.9632 75.0726 27.9632 75.0338C22.0674 70.4957 21.7959 67.8193 19.9341 67.6641C16.9862 67.3926 18.5377 72.7841 20.5547 75.3053C20.5547 75.3053 13.728 69.7199 10.9353 66.0738C8.14255 62.389 3.99225 64.2508 7.17286 68.7114C10.1983 72.9781 18.7316 82.6363 30.1741 87.0581C31.2601 87.4847 32.4626 87.4847 33.5486 87.0581C44.991 82.6363 53.5244 72.9393 56.5498 68.7114C59.7304 64.2508 55.5801 62.389 52.7874 66.0738Z" fill="#FF60E6"/>
<path fill-rule="evenodd" clip-rule="evenodd" d="M10.7808 65.9181C10.8668 65.8543 10.9883 65.8722 11.0522 65.9582C12.4939 67.8998 14.8857 70.1964 16.9261 72.0139C17.9446 72.9211 18.8725 73.7062 19.5457 74.2646C19.8823 74.5437 20.1552 74.7661 20.3438 74.9186C20.4381 74.9948 20.5113 75.0536 20.5609 75.0933L20.6173 75.1382L20.636 75.1531C20.636 75.1531 20.6363 75.1533 20.5159 75.3054C20.3955 75.4574 20.3954 75.4574 20.3954 75.4573L20.3758 75.4417L20.3187 75.3962C20.2685 75.3561 20.1948 75.2969 20.0999 75.2202C19.9102 75.0668 19.6361 74.8434 19.2981 74.5631C18.6223 74.0027 17.6908 73.2145 16.6681 72.3035C14.6261 70.4846 12.2081 68.1655 10.7408 66.1895C10.6769 66.1035 10.6949 65.982 10.7808 65.9181ZM20.6679 75.4258C20.6014 75.5097 20.4793 75.5238 20.3954 75.4573L20.5159 75.3054L20.636 75.1531C20.72 75.2196 20.7344 75.3418 20.6679 75.4258Z" fill="#C622AC"/>
<path d="M41.3062 53.3126C41.0734 53.1962 40.8407 53.1187 40.608 53.1187H36.225V48.7356C36.225 47.8823 35.5268 47.2229 34.7122 47.2229H29.088C28.2347 47.2229 27.5753 47.9211 27.5753 48.7356V53.1187H23.1922C22.3389 53.1187 21.6795 53.8168 21.6795 54.6702V60.2944C21.6795 61.1477 22.3777 61.8071 23.1922 61.8071H27.4977V66.1902C27.4977 67.0435 28.1959 67.7029 29.0104 67.7029H34.6347C35.488 67.7029 36.1474 67.0047 36.1474 66.1902V61.8071H40.5304C41.3837 61.8071 42.0431 61.109 42.0431 60.2944V54.6702C42.1207 54.0884 41.8104 53.5841 41.3062 53.3126Z" fill="white"/>
<path d="M63.1825 55.5623C62.9498 56.6872 61.9801 57.4241 60.894 57.4241C60.7389 57.4241 60.5837 57.4241 60.4674 57.3853C59.1874 57.1526 58.3728 55.9114 58.6443 54.6702C60.4286 45.555 56.4334 38.7672 48.2104 36.9053C40.7243 35.2375 33.6262 42.6072 33.5486 42.6847C33.5486 42.6847 41.9656 29.8072 56.8213 35.8193C58.4504 37.0605 59.8468 38.5344 60.9328 40.2799C63.5316 44.4302 64.3074 49.7053 63.1825 55.5623Z" fill="#C622AC"/>
<path d="M30.1353 42.6846C30.0577 42.607 22.9595 35.2374 15.4734 36.9052C7.2892 38.7671 3.29405 45.5549 5.03951 54.6701C5.27224 55.9113 4.45769 57.1525 3.21647 57.3852C1.97526 57.618 0.734049 56.8034 0.501322 55.5622C-0.623526 49.744 0.152238 44.4689 2.75103 40.2798C4.768 37.0604 7.75466 34.6555 11.4783 33.2592C23.6577 30.6604 30.1353 42.6846 30.1353 42.6846Z" fill="#FF60E6"/>
<path d="M12.3316 43.6155C12.3316 43.6155 18.5377 44.2749 17.4129 50.7524C10.8965 49.7052 12.3316 43.6155 12.3316 43.6155Z" fill="#FF60E6"/>
<path fill-rule="evenodd" clip-rule="evenodd" d="M12.7613 43.9299L17.2219 50.2136L16.9056 50.4381L12.445 44.1545L12.7613 43.9299Z" fill="white"/>
<path d="M51.3522 43.6155C51.3522 43.6155 45.1462 44.2749 46.271 50.7524C52.7874 49.7052 51.3522 43.6155 51.3522 43.6155Z" fill="#FF60E6"/>
<path fill-rule="evenodd" clip-rule="evenodd" d="M51.2384 44.155L46.739 50.4387L46.4236 50.2128L50.923 43.9292L51.2384 44.155Z" fill="white"/>
<path d="M55.5801 57.5405C55.5801 57.5405 50.6929 53.6229 46.9692 59.0144C52.2832 62.8544 55.5801 57.5405 55.5801 57.5405Z" fill="#FF60E6"/>
<path fill-rule="evenodd" clip-rule="evenodd" d="M55.108 57.8093L47.5056 59.0893L47.4412 58.7068L55.0437 57.4268L55.108 57.8093Z" fill="white"/>
<path d="M8.06494 57.5405C8.06494 57.5405 12.9522 53.6229 16.6759 59.0144C11.4007 62.8544 8.06494 57.5405 8.06494 57.5405Z" fill="#FF60E6"/>
<path fill-rule="evenodd" clip-rule="evenodd" d="M8.60125 57.4268L16.2425 58.7068L16.1784 59.0893L8.53717 57.8093L8.60125 57.4268Z" fill="white"/>
</g>
<defs>
<clipPath id="clip0_1_54">
<rect width="64" height="55.4667" fill="white" transform="translate(0 32)"/>
</clipPath>
</defs>
</svg>
