<svg width="120" height="120" viewBox="0 0 120 120" fill="none" xmlns="http://www.w3.org/2000/svg">
<rect width="120" height="120" rx="60" fill="#FFADF2"/>
<g clip-path="url(#clip0_1_164)">
<path d="M60.8752 91.2717C67.7054 90.8694 72.9163 85.0062 72.514 78.176C72.1116 71.3458 66.2485 66.1349 59.4183 66.5372C52.5881 66.9395 47.3772 72.8026 47.7795 79.6329C48.1818 86.4631 54.0449 91.674 60.8752 91.2717Z" fill="white"/>
<path d="M56.971 76.4267C56.969 77.0082 56.4952 77.4775 55.9137 77.4756C55.3322 77.4737 54.8629 77.0004 54.8648 76.4183C54.8668 75.8368 55.3406 75.3674 55.9221 75.3694C56.5036 75.372 56.9736 75.8452 56.971 76.4267Z" fill="#C622AC"/>
<path d="M65.7238 76.4604C65.7212 77.0419 65.248 77.5112 64.6665 77.5093C64.085 77.5073 63.6157 77.0335 63.6176 76.452C63.6202 75.8705 64.0935 75.4011 64.675 75.4031C65.2565 75.4057 65.7258 75.8789 65.7238 76.4604Z" fill="#C622AC"/>
<path d="M53.9851 46.9631C58.6332 51.9839 58.3317 59.822 53.3109 64.4701C48.2901 69.1181 40.452 68.816 35.8039 63.7959C31.1559 58.7751 31.4573 50.937 36.4781 46.2889C41.4989 41.6409 49.3371 41.9423 53.9851 46.9631Z" fill="#C622AC"/>
<path d="M40.8993 55.7382C41.2941 56.1647 41.2688 56.8312 40.8416 57.226C40.415 57.6207 39.7486 57.5955 39.3538 57.1689C38.9591 56.7424 38.9843 56.0759 39.4109 55.6811C39.8381 55.2857 40.5038 55.3116 40.8993 55.7382Z" fill="white"/>
<path d="M47.3216 49.7917C47.7164 50.2182 47.6911 50.8846 47.2639 51.2794C46.8373 51.6742 46.1709 51.6489 45.7761 51.2224C45.3813 50.7958 45.4066 50.1294 45.8332 49.7346C46.2604 49.3398 46.9268 49.3651 47.3216 49.7917Z" fill="white"/>
<path fill-rule="evenodd" clip-rule="evenodd" d="M50.3637 54.0479C50.7568 53.9372 51.1653 54.1662 51.276 54.5593C51.849 56.594 51.2632 58.7856 49.7457 60.2472L49.7456 60.2472C48.1707 61.764 45.8529 62.2446 43.7909 61.4897C43.4074 61.3492 43.2103 60.9244 43.3507 60.5409C43.4911 60.1573 43.9159 59.9602 44.2995 60.1006C45.8354 60.663 47.5562 60.3021 48.7195 59.1818C49.8404 58.1022 50.2789 56.4756 49.8522 54.9603C49.7415 54.5671 49.9705 54.1586 50.3637 54.0479Z" fill="white"/>
<path d="M66.5361 47.0119C61.8492 51.9964 62.0903 59.8365 67.0748 64.5234C72.0593 69.2103 79.8994 68.9692 84.5863 63.9847C89.2732 59.0002 89.0321 51.1601 84.0476 46.4732C79.0631 41.7863 71.223 42.0274 66.5361 47.0119Z" fill="#FF60E6"/>
<path d="M79.5538 55.8879C79.1551 56.3119 79.1759 56.9776 79.5999 57.3763C80.0232 57.775 80.6896 57.7543 81.0883 57.3303C81.4863 56.907 81.4662 56.2406 81.0422 55.8419C80.6183 55.4439 79.9519 55.4639 79.5538 55.8879Z" fill="white"/>
<path d="M73.1769 49.8921C72.7782 50.3154 72.799 50.9818 73.2223 51.3805C73.6462 51.7792 74.3126 51.7584 74.7107 51.3344C75.1087 50.9111 75.0886 50.2447 74.6646 49.846C74.242 49.448 73.5756 49.4681 73.1769 49.8921Z" fill="white"/>
<path d="M60.2006 33.8968C59.7715 32.6139 59.2587 31.3375 58.4425 30.2588C57.6264 29.1801 56.4712 28.3056 55.1396 28.0644C52.9057 27.6599 50.6096 29.2112 49.7403 31.309C48.8709 33.4061 49.2482 35.8675 50.2958 37.8817C51.3434 39.8958 52.9965 41.5275 54.728 42.9958C56.4595 44.4642 58.3025 45.8112 59.8837 47.4403C62.9499 45.5487 65.8801 42.7638 68.3169 40.1098C69.7022 38.6013 71.0039 36.9138 71.481 34.9217C71.9582 32.9296 71.4156 30.5719 69.7204 29.4219C68.1016 28.3237 65.8522 28.5934 64.1563 29.569C62.4605 30.5447 61.4245 32.3708 60.2006 33.8968Z" fill="white"/>
<path d="M86.1694 81.4937C87.3803 82.0972 88.6451 82.6372 89.9851 82.8226C91.325 83.0087 92.7603 82.8097 93.8727 82.0389C95.7384 80.7456 96.2648 78.0248 95.3968 75.927C94.5281 73.8293 92.5217 72.3558 90.3565 71.6725C88.1913 70.9892 85.8693 71.0041 83.6062 71.1902C81.3437 71.3762 79.0878 71.727 76.8175 71.6926C75.9865 75.1984 75.884 79.2397 76.0377 82.8388C76.1252 84.8854 76.3975 86.9987 77.4684 88.7445C78.5393 90.4903 80.5904 91.7738 82.602 91.3888C84.5235 91.0205 85.9231 89.2391 86.4326 87.3501C86.9415 85.4617 86.3827 83.4378 86.1694 81.4937Z" fill="#C622AC"/>
<path d="M33.769 81.2899C32.5535 81.8844 31.2849 82.414 29.943 82.5897C28.6011 82.7654 27.1678 82.5553 26.0618 81.7761C24.2059 80.4686 23.7009 77.7433 24.5851 75.6526C25.47 73.562 27.488 72.1041 29.6584 71.4376C31.8288 70.7712 34.1509 70.8043 36.412 71.0078C38.6731 71.2114 40.9265 71.5796 43.1967 71.5628C44.0006 75.075 44.0712 79.1163 43.8904 82.7148C43.7873 84.7607 43.4982 86.8721 42.4136 88.6095C41.3291 90.3468 39.2682 91.6148 37.2593 91.2135C35.3404 90.8304 33.9551 89.038 33.4605 87.1457C32.9658 85.2521 33.5402 83.2328 33.769 81.2899Z" fill="#FF60E6"/>
<path fill-rule="evenodd" clip-rule="evenodd" d="M77.1721 60.9887C77.2828 61.3818 77.0538 61.7903 76.6606 61.901C74.626 62.474 72.4344 61.8882 70.9728 60.3707L70.9728 60.3706C69.456 58.7957 68.9754 56.4779 69.7303 54.4159C69.8708 54.0324 70.2955 53.8353 70.6791 53.9757C71.0627 54.1161 71.2598 54.5409 71.1193 54.9245C70.557 56.4604 70.9178 58.1812 72.0382 59.3445C73.1178 60.4654 74.7444 60.9039 76.2597 60.4772C76.6529 60.3665 77.0614 60.5955 77.1721 60.9887Z" fill="white"/>
<path fill-rule="evenodd" clip-rule="evenodd" d="M64.9702 81.6303C65.3265 81.83 65.4535 82.2808 65.2537 82.6371C64.2202 84.4809 62.2562 85.6164 60.1497 85.5768L60.1496 85.5768C57.9635 85.5357 55.9847 84.2366 55.0605 82.2448C54.8886 81.8742 55.0496 81.4345 55.4201 81.2626C55.7906 81.0907 56.2304 81.2517 56.4023 81.6222C57.0907 83.1059 58.5626 84.0675 60.1775 84.0979C61.7334 84.1271 63.1937 83.287 63.9634 81.9138C64.1631 81.5575 64.6139 81.4305 64.9702 81.6303Z" fill="#C622AC"/>
</g>
<defs>
<clipPath id="clip0_1_164">
<rect width="71.9571" height="64" fill="white" transform="translate(24 28)"/>
</clipPath>
</defs>
</svg>
