<svg width="120" height="120" viewBox="0 0 120 120" fill="none" xmlns="http://www.w3.org/2000/svg">
<rect width="120" height="120" rx="60" fill="#FFADF2"/>
<g clip-path="url(#clip0_1_73)">
<path fill-rule="evenodd" clip-rule="evenodd" d="M59.9996 28C77.6612 28 92 42.3387 92 60C92 77.6616 77.6612 92 59.9996 92C42.3384 92 28 77.6613 28 60C27.9996 42.3387 42.3384 28 59.9996 28Z" fill="#C622AC"/>
<mask id="mask0_1_73" style="mask-type:luminance" maskUnits="userSpaceOnUse" x="28" y="28" width="64" height="64">
<path d="M59.9996 28C77.6612 28 92 42.3387 92 60C92 77.6616 77.6612 92 59.9996 92C42.3384 92 28 77.6613 28 60C27.9996 42.3387 42.3384 28 59.9996 28Z" fill="white"/>
</mask>
<g mask="url(#mask0_1_73)">
<path fill-rule="evenodd" clip-rule="evenodd" d="M69.9686 54.637C72.4615 54.637 74.4859 56.6614 74.4859 59.1547C74.4859 61.6475 72.4615 63.672 69.9686 63.672C67.4754 63.672 65.4509 61.6475 65.4509 59.1547C65.4509 56.6614 67.475 54.637 69.9686 54.637Z" fill="white"/>
</g>
<mask id="mask1_1_73" style="mask-type:luminance" maskUnits="userSpaceOnUse" x="28" y="28" width="64" height="64">
<path d="M59.9996 28C77.6612 28 92 42.3387 92 60C92 77.6616 77.6612 92 59.9996 92C42.3384 92 28 77.6613 28 60C27.9996 42.3387 42.3384 28 59.9996 28Z" fill="white"/>
</mask>
<g mask="url(#mask1_1_73)">
<path fill-rule="evenodd" clip-rule="evenodd" d="M50.0765 64.4412C52.1367 64.4412 53.8089 66.1138 53.8089 68.174C53.8089 70.2337 52.1367 71.906 50.0765 71.906C48.0167 71.906 46.3445 70.2337 46.3445 68.174C46.3441 66.1142 48.0167 64.4412 50.0765 64.4412Z" fill="white"/>
</g>
<mask id="mask2_1_73" style="mask-type:luminance" maskUnits="userSpaceOnUse" x="28" y="28" width="64" height="64">
<path d="M59.9996 28C77.6612 28 92 42.3387 92 60C92 77.6616 77.6612 92 59.9996 92C42.3384 92 28 77.6613 28 60C27.9996 42.3387 42.3384 28 59.9996 28Z" fill="white"/>
</mask>
<g mask="url(#mask2_1_73)">
</g>
<mask id="mask3_1_73" style="mask-type:luminance" maskUnits="userSpaceOnUse" x="28" y="28" width="64" height="64">
<path d="M59.9996 28C77.6612 28 92 42.3387 92 60C92 77.6616 77.6612 92 59.9996 92C42.3384 92 28 77.6613 28 60C27.9996 42.3387 42.3384 28 59.9996 28Z" fill="white"/>
</mask>
<g mask="url(#mask3_1_73)">
<path fill-rule="evenodd" clip-rule="evenodd" d="M41.8857 90.7498C38.6413 85.1814 36.172 71.2962 35.5988 67.645C34.8634 62.9617 33.2638 60.1841 35.7649 59.3596C38.447 58.475 40.4353 65.8389 45.732 71.659C51.4343 77.9251 59.0299 73.7938 60.5282 77.7339C61.2981 79.7579 56.0788 81.5857 53.8969 84.4299C50.3506 89.0532 50.6671 92.0177 50.8504 96.3524" fill="white"/>
<path fill-rule="evenodd" clip-rule="evenodd" d="M70.0918 97.0871C69.5622 94.738 69.9132 92.1312 69.7133 89.7412C69.3953 85.9429 68.2417 81.9662 65.9161 78.8966C64.8721 77.518 63.6443 76.1941 62.1696 75.2718C60.6681 74.333 58.9822 73.7106 57.5867 72.601C56.4591 71.7042 54.9973 70.0285 55.238 68.4434C55.5203 66.5799 57.9417 66.7743 59.2908 66.8932C63.5556 67.2686 67.844 67.8269 72.0342 66.5595C75.9155 65.3855 78.6596 62.4576 81.0841 59.3762C81.4941 58.8552 82.968 56.8708 83.9241 57.3887C85.4758 58.2281 85.2846 61.1866 85.3411 62.6202C85.5732 68.4363 84.8919 74.13 82.9853 79.6532C81.527 83.8788 79.5689 88.4389 76.4361 91.7064" fill="white"/>
</g>
</g>
<defs>
<clipPath id="clip0_1_73">
<rect width="64" height="64" fill="white" transform="translate(28 28)"/>
</clipPath>
</defs>
</svg>
