<svg width="60" height="120" viewBox="0 0 60 120" fill="none" xmlns="http://www.w3.org/2000/svg">
<rect x="-60" width="120" height="120" rx="60" fill="#FFADF2"/>
<g clip-path="url(#clip0_1_119)">
<path d="M22.3688 69.8092C27.3324 57.5536 21.4211 43.5947 9.16547 38.6311C-3.09013 33.6675 -17.049 39.5788 -22.0126 51.8344C-26.9762 64.09 -21.0649 78.0489 -8.80928 83.0125C3.44632 87.9761 17.4052 82.0648 22.3688 69.8092Z" fill="#C622AC"/>
<path d="M17.2436 70.6412C17.199 68.5019 16.3147 66.2694 14.5125 65.1162C14.0328 64.8091 13.5068 64.5924 12.9579 64.4552C13.13 63.8633 13.2683 63.2671 13.3516 62.6698C13.6369 60.6241 13.5503 58.4745 13.6304 56.413C13.7328 53.7706 13.8215 51.1276 13.8798 48.4841C13.9451 45.5264 13.9723 42.5677 13.938 39.6089C13.9222 38.2591 13.8825 36.8614 13.2988 35.6444C12.7151 34.427 11.4323 33.4382 10.0966 33.632C9.02017 33.7883 8.1615 34.6714 7.72918 35.6695C7.29685 36.6675 7.21572 37.7772 7.14004 38.8624C6.9157 42.0918 6.69083 45.3212 6.4665 48.5506C6.33963 50.3752 6.19588 52.2607 5.34048 53.8773C4.63809 53.6018 4.21393 52.692 4.10558 51.9449C3.10916 45.044 2.35503 38.2068 1.61017 31.9958C1.50072 31.0849 1.02103 30.2295 0.400852 29.5532C-0.219324 28.8769 -1.14551 28.4321 -2.05264 28.5693C-3.84239 28.8399 -4.13205 31.344 -4.41465 32.7728C-4.83445 34.8985 -4.16744 47.754 -5.00215 52.0985C-5.11105 52.6653 -5.48512 53.0105 -6.05465 53.1041C-7.14799 53.2844 -9.7828 44.9667 -11.3471 41.0491C-11.8481 39.7946 -12.3691 38.4916 -13.3585 37.5714C-13.7881 37.1718 -14.3407 36.8461 -14.9261 36.8859C-16.0788 36.9648 -16.626 38.3206 -16.8084 39.4613C-17.3496 42.847 -13.6912 58.3493 -12.8113 63.663C-12.9703 63.6962 -13.1282 63.7343 -13.285 63.7789C-14.3936 64.0936 -15.4521 64.7263 -16.0597 65.7053C-17.0142 67.2435 -16.6695 69.2353 -16.1381 70.9657C-14.6489 75.81 -11.97 80.191 -9.24811 84.4664C-8.74935 85.2499 -8.23481 86.047 -7.51063 86.6291C-6.75977 87.2324 -5.83142 87.5662 -4.90741 87.8379C-2.31345 88.6002 0.400301 88.953 3.10262 88.88C4.33208 88.8468 5.56972 88.7238 6.7431 88.3552C9.16555 87.5934 11.1725 85.8162 12.6263 83.7346C14.0801 81.653 15.0341 79.2676 15.8922 76.8778C16.6158 74.8643 17.2883 72.7805 17.2436 70.6412Z" fill="#FFADF2"/>
<path d="M-4.15059 60.5207C-5.63324 59.5782 -7.13495 58.6569 -8.72813 57.9159C-9.51329 57.5505 -10.3382 57.2254 -11.2029 57.1846C-11.5595 57.1677 -11.9466 57.2118 -12.2118 57.4509C-12.4688 57.6828 -12.5559 58.0465 -12.6017 58.3896C-12.9104 60.6982 -11.9439 63.0401 -10.452 64.8287C-8.96009 66.6174 -6.98303 67.9296 -4.98039 69.1182C-3.99758 69.7014 -2.99081 70.266 -1.89584 70.5933C-0.800864 70.92 0.400829 70.9951 1.47293 70.6004C1.84646 70.4626 2.20256 70.2682 2.49658 69.9998C2.83744 69.6883 3.08735 69.2811 3.2213 68.8395C3.79628 66.9457 1.98149 65.2796 0.735149 64.116C-0.746415 62.7319 -2.44469 61.6053 -4.15059 60.5207Z" fill="#FFADF2"/>
<path d="M19.0835 64.8755C19.1211 63.5028 19.035 62.0871 18.4519 60.844C17.8687 59.601 16.6964 58.5588 15.3265 58.469C13.7251 58.3639 12.3122 59.5356 11.3784 60.8408C9.18626 63.9041 8.68478 67.9366 9.29679 71.6533C9.47048 72.7074 9.73292 73.7627 10.2594 74.6921C10.786 75.6216 11.6038 76.4203 12.6204 76.7481C13.5536 77.0492 14.5626 76.8935 15.4104 76.4247C16.1138 76.0354 16.3676 75.5475 16.703 74.8353C17.6411 72.8447 18.3158 70.732 18.7034 68.5655C18.9223 67.3469 19.0497 66.1126 19.0835 64.8755Z" fill="#FFADF2"/>
<path d="M11.0244 66.649C10.6188 66.8423 10.2033 67.028 9.7601 67.1036C9.37242 67.1701 8.9744 67.1499 8.584 67.1004C7.93823 67.0187 7.29246 66.8521 6.7349 66.5161C6.17734 66.1802 5.71234 65.6596 5.53538 65.0329C5.35515 64.3942 5.48802 63.6946 5.80001 63.1087C6.112 62.5228 6.59007 62.0404 7.1106 61.6293C8.65642 60.4075 10.5736 59.7704 12.4619 59.2074C13.259 58.97 14.0801 58.7392 14.9094 58.8023C15.4642 58.8448 16.0621 59.0658 16.3103 59.5635C16.5456 60.035 16.3975 60.6024 16.2036 61.0924C15.1881 63.6614 13.5095 65.4647 11.0244 66.649Z" fill="#FFADF2"/>
<path d="M9.9714 37.6913C9.97032 37.9298 9.77593 38.1225 9.53745 38.122C9.29896 38.1209 9.10621 37.927 9.10675 37.688C9.10784 37.4495 9.30168 37.2568 9.54071 37.2573C9.7792 37.2584 9.97195 37.4523 9.9714 37.6913Z" fill="#C622AC"/>
<path d="M0.367645 34.1281C0.366556 34.3665 0.172174 34.5593 -0.0663143 34.5587C-0.304802 34.5576 -0.497553 34.3638 -0.497008 34.1248C-0.495919 33.8863 -0.302081 33.6935 -0.0630491 33.6941C0.175983 33.6952 0.368734 33.889 0.367645 34.1281Z" fill="#C622AC"/>
<path d="M12.0944 37.66C12.0933 37.8985 11.8995 38.0913 11.6604 38.0907C11.4219 38.0896 11.2292 37.8958 11.2297 37.6568C11.2308 37.4183 11.4252 37.2255 11.6637 37.2261C11.9022 37.2272 12.0949 37.4215 12.0944 37.66Z" fill="#C622AC"/>
<path d="M-2.11688 35.4255C-1.64317 36.0615 -0.572157 36.116 -0.0363766 35.5312" stroke="#C622AC" stroke-width="0.6873" stroke-miterlimit="10" stroke-linecap="round" stroke-linejoin="round"/>
<path d="M9.44379 39.115C9.66648 39.5937 10.1952 39.9122 10.7223 39.8839C11.2493 39.8561 11.7421 39.4837 11.9125 38.9844" stroke="#C622AC" stroke-width="0.6873" stroke-miterlimit="10" stroke-linecap="round" stroke-linejoin="round"/>
<path d="M-1.56256 63.7032C-2.23501 64.1851 -2.96572 64.7644 -3.02126 65.5621C-3.06645 66.209 -2.64556 66.803 -2.20997 67.3126C-1.38071 68.2824 0.462403 69.7689 1.29657 69.3529C1.63361 69.1846 1.79968 68.8492 1.82581 68.4937C1.91184 67.3203 1.46972 66.1698 0.792368 65.1891C0.447704 64.6904 0.0279036 64.2662 -0.385366 63.8197C-0.776857 63.3961 -1.03713 63.3264 -1.56256 63.7032Z" fill="#C622AC"/>
<path d="M4.53954 65.0781C5.30292 66.4611 6.74147 65.6972 7.67528 65.2981C8.43484 64.973 9.24396 64.5276 9.51021 63.7452C9.66757 63.2824 9.60169 62.7624 9.40077 62.3164C9.2053 61.8836 8.83123 61.338 8.41741 61.0843C8.04117 60.8534 7.57563 61.2035 7.22226 61.3881C6.36523 61.8357 5.56427 62.4232 4.95444 63.1789C4.62284 63.59 3.91065 63.939 4.53954 65.0781Z" fill="#C622AC"/>
<path d="M-4.1892 77.98C-3.20694 72.871 -7.1507 67.7424 -7.1507 67.7424C-7.1507 67.7424 -2.77733 71.4063 0.762959 71.1521" stroke="#C622AC" stroke-width="1.1455" stroke-miterlimit="10" stroke-linecap="round" stroke-linejoin="round"/>
<path d="M0.725935 71.1852C1.64667 70.6478 2.17809 69.5768 2.23309 68.5123C2.28808 67.4478 1.91674 66.3959 1.36626 65.4833C0.815773 64.5707 0.315932 63.9081 -0.485016 63.2046C-2.99513 61.0016 -5.91525 59.2668 -9.05043 58.1163C-9.82361 57.8326 -10.6262 57.5816 -11.4495 57.5898C-12.2727 57.5985 -14.5204 57.6693 -16.6309 63.1333" stroke="#C622AC" stroke-width="1.1455" stroke-miterlimit="10" stroke-linecap="round" stroke-linejoin="round"/>
<path d="M4.73173 63.2161C3.22131 68.839 9.98609 66.6436 11.5417 65.9178C13.0979 65.192 14.0807 64.4755 14.0807 64.4755" stroke="#C622AC" stroke-width="1.1455" stroke-miterlimit="10" stroke-linecap="round" stroke-linejoin="round"/>
<path d="M4.73175 63.2161C6.92224 61.5276 9.40948 60.2257 12.0454 59.3878C13.8738 58.8062 16.0643 58.5122 17.5486 59.7281C19.0307 60.9423 19.1755 63.1344 19.0394 65.0456C18.5744 71.5953 16.2156 77.9375 12.7156 83.493" stroke="#C622AC" stroke-width="1.1455" stroke-miterlimit="10" stroke-linecap="round" stroke-linejoin="round"/>
<path d="M12.3829 68.4833C12.4379 68.8078 12.7369 65.8872 14.0812 64.4758" stroke="#C622AC" stroke-width="1.1455" stroke-miterlimit="10" stroke-linecap="round" stroke-linejoin="round"/>
<path d="M-2.08148 28.7126C-0.47904 28.9098 0.81903 30.2008 1.48113 31.6736C2.14269 33.1459 2.28099 34.7919 2.41058 36.4014C2.73292 40.4127 3.05526 44.424 3.37814 48.4353C3.5257 50.268 3.80231 52.6535 5.30021 53.719" stroke="#C622AC" stroke-width="1.1455" stroke-miterlimit="10" stroke-linecap="round" stroke-linejoin="round"/>
<path d="M7.32355 37.4081C7.32355 37.4081 7.67965 35.559 8.28295 34.7287C8.88625 33.8983 9.93821 33.3571 10.9493 33.534C11.9033 33.7012 12.6694 34.4635 13.0848 35.3379C13.5008 36.2124 13.6206 37.1947 13.7126 38.1584C14.3736 45.086 13.8792 52.0658 13.3843 59.007" stroke="#C622AC" stroke-width="1.1455" stroke-miterlimit="10" stroke-linecap="round" stroke-linejoin="round"/>
<path d="M6.07068 52.4541C6.41371 50.9344 6.43712 48.1945 6.59829 46.6449C6.59829 46.6449 7.10085 41.0737 7.10739 39.322" stroke="#C622AC" stroke-width="1.1455" stroke-miterlimit="10" stroke-linecap="round" stroke-linejoin="round"/>
<path d="M11.6697 60.5508C11.7753 60.6575 11.8809 60.7637 11.9871 60.8704" stroke="#C622AC" stroke-width="1.1455" stroke-miterlimit="10" stroke-linecap="round" stroke-linejoin="round"/>
<path d="M12.9449 60.2371C13.191 60.5921 13.4376 60.9465 13.6838 61.3016" stroke="#C622AC" stroke-width="1.1455" stroke-miterlimit="10" stroke-linecap="round" stroke-linejoin="round"/>
<path d="M-2.71747 71.0381C0.724814 72.6863 3.36561 75.9233 4.28852 79.6269" stroke="#C622AC" stroke-width="1.1455" stroke-miterlimit="10" stroke-linecap="round" stroke-linejoin="round"/>
<path d="M2.3006 71.7204C4.2232 69.6617 7.03986 68.4687 9.85652 68.5204" stroke="#C622AC" stroke-width="1.1455" stroke-miterlimit="10" stroke-linecap="round" stroke-linejoin="round"/>
<path d="M9.9502 44.542C10.364 44.5436 10.7773 44.5453 11.1911 44.5469" stroke="#C622AC" stroke-width="1.1455" stroke-miterlimit="10" stroke-linecap="round" stroke-linejoin="round"/>
<path d="M9.57501 49.8591C10.1059 50.0383 10.6373 50.218 11.1682 50.3971" stroke="#C622AC" stroke-width="1.1455" stroke-miterlimit="10" stroke-linecap="round" stroke-linejoin="round"/>
<path d="M-1.76947 49.6375C-1.29685 49.6391 -0.824233 49.6413 -0.351069 49.6429" stroke="#C622AC" stroke-width="1.1455" stroke-miterlimit="10" stroke-linecap="round" stroke-linejoin="round"/>
<path d="M-4.65637 57.4602C-2.9581 60.0602 1.97773 62.6503 5.73255 62.5022" stroke="#C622AC" stroke-width="1.1455" stroke-miterlimit="10" stroke-linecap="round" stroke-linejoin="round"/>
</g>
<defs>
<clipPath id="clip0_1_119">
<rect width="62.3562" height="64" fill="white" transform="translate(-31 28)"/>
</clipPath>
</defs>
</svg>
