<svg width="120" height="120" viewBox="0 0 120 120" fill="none" xmlns="http://www.w3.org/2000/svg">
<rect width="120" height="120" rx="60" fill="#FFADF2"/>
<path fill-rule="evenodd" clip-rule="evenodd" d="M38.3538 40.6298C43.0782 43.4267 50.5147 54.979 54.5437 57.4142C59.9988 60.711 63.729 57.9038 68.4364 54.2515C75.2252 48.9838 81.489 46.3219 84.145 45.7714C88.7984 44.8063 92.3737 48.4976 92.823 52.3038C93.5197 58.209 91.7026 63.412 88.9061 68.7251C86.6306 73.0487 70.9411 90.4741 59.5214 91.6569C54.4715 92.18 51.3445 89.7598 46.3915 85.6025C40.0477 80.2783 36.8191 76.6817 32.5311 69.3077C29.8181 64.6415 27.575 57.7944 27.06 52.372C26.6233 47.7714 28.391 34.7314 38.3538 40.6298Z" fill="#C622AC"/>
<mask id="mask0_1_198" style="mask-type:luminance" maskUnits="userSpaceOnUse" x="27" y="39" width="66" height="53">
<path d="M38.3538 40.6298C43.0782 43.4267 50.5147 54.979 54.5437 57.4142C59.9988 60.711 63.729 57.9038 68.4364 54.2515C75.2252 48.9838 81.489 46.3219 84.145 45.7714C88.7984 44.8063 92.3737 48.4976 92.823 52.3038C93.5197 58.209 91.7026 63.412 88.9061 68.7251C86.6306 73.0487 70.9411 90.4741 59.5214 91.6569C54.4715 92.18 51.3445 89.7598 46.3915 85.6025C40.0477 80.2783 36.8191 76.6817 32.5311 69.3077C29.8181 64.6415 27.575 57.7944 27.06 52.372C26.6233 47.7714 28.391 34.7314 38.3538 40.6298Z" fill="white"/>
</mask>
<g mask="url(#mask0_1_198)">
<path fill-rule="evenodd" clip-rule="evenodd" d="M48.9938 92.4838C49.9655 88.6858 50.8057 70.9355 47.4129 64.5883C44.8823 59.8548 42.1515 54.9858 40.4974 49.8304C39.9413 48.0967 39.1002 45.7113 40.0092 43.9355C41.1534 41.7006 42.8689 44.1567 43.9525 45.4528C47.6317 49.8523 50.9839 56.4812 56.9562 58.1455C62.359 59.6516 65.3554 55.9706 70.7193 53.0265C72.3059 52.1554 77.0185 49.0206 78.9221 51.0304C80.9536 53.1744 74.2622 57.4205 72.0896 60.9647C70.6371 63.3347 69.3947 66.0781 68.8447 68.1295C66.4217 77.1639 70.8023 85.2213 72.0473 94.047" fill="#FF60E6"/>
</g>
<path fill-rule="evenodd" clip-rule="evenodd" d="M48.9528 28.2766C52.2535 28.2766 54.9329 30.9334 54.9329 34.2054C54.9329 37.4782 52.2531 40.1346 48.9528 40.1346C45.6516 40.1346 42.9722 37.4778 42.9722 34.2054C42.9718 30.9334 45.6516 28.2766 48.9528 28.2766Z" fill="#C622AC"/>
<path d="M75.9283 44.9592C79.2313 44.9592 81.9089 42.3046 81.9089 39.03C81.9089 35.7554 79.2313 33.1008 75.9283 33.1008C72.6254 33.1008 69.9478 35.7554 69.9478 39.03C69.9478 42.3046 72.6254 44.9592 75.9283 44.9592Z" fill="#C622AC"/>
<path d="M61.3061 52.6604C64.0666 52.6604 66.3045 50.4417 66.3045 47.7048C66.3045 44.968 64.0666 42.7493 61.3061 42.7493C58.5455 42.7493 56.3076 44.968 56.3076 47.7048C56.3076 50.4417 58.5455 52.6604 61.3061 52.6604Z" fill="#FF60E6"/>
</svg>
