<svg width="172" height="338" viewBox="0 0 172 338" fill="none" xmlns="http://www.w3.org/2000/svg">
<path d="M16.5 11.5L14.8238 19.3224C14.9513 19.3497 15.0794 19.3739 15.2081 19.395L16.5 11.5ZM46 19.5L52.9459 15.5309L46 19.5ZM73.5 55L77.4691 48.0541C77.1628 47.879 76.8451 47.7244 76.5184 47.5913L73.5 55ZM123.5 143L115.844 145.32C115.906 145.527 115.978 145.731 116.057 145.932L123.5 143ZM130 159.5L137.629 157.091C137.573 156.914 137.511 156.74 137.443 156.568L130 159.5ZM133 169L125.371 171.409C125.443 171.635 125.524 171.858 125.615 172.077L133 169ZM138.5 195L146.398 193.726C146.394 193.7 146.389 193.674 146.385 193.648L138.5 195ZM143.5 226L135.602 227.274C135.641 227.518 135.692 227.76 135.754 227.999L143.5 226ZM149.5 260.5L141.544 261.337C141.546 261.361 141.549 261.385 141.552 261.408L149.5 260.5ZM161 319L168.822 317.324C168.769 317.077 168.705 316.832 168.629 316.591L161 319ZM162.5 326L170.391 324.685C170.371 324.564 170.348 324.444 170.322 324.324L162.5 326ZM155.609 333.315C156.335 337.673 160.457 340.618 164.815 339.891C169.173 339.165 172.118 335.043 171.391 330.685L155.609 333.315ZM156.429 299.543L163.711 296.232L156.429 299.543ZM155.066 295.765L162.827 293.825L155.066 295.765ZM156.24 299.128L148.957 302.438L156.24 299.128ZM154.339 291.565L162.311 290.9L154.339 291.565ZM154.971 295.384L147.21 297.324L154.971 295.384ZM153.206 284.481L160.942 282.445L153.206 284.481ZM154.259 290.611L146.287 291.275L154.259 290.611ZM135.626 178.235L143.511 176.884L135.626 178.235ZM158.814 312.077L166.442 309.668L158.814 312.077ZM134.825 173.381L127.441 176.458L134.825 173.381ZM152.629 282.29L144.892 284.326L152.629 282.29ZM100.319 74.3172L107.288 70.3884L100.319 74.3172ZM145.652 234.337L137.905 236.336L145.652 234.337ZM148.274 248.857L140.318 249.694L148.274 248.857ZM90.9747 64.9856L87.0056 71.9315L90.9747 64.9856ZM1 16.5C0.477345 16.5 0.194948 16.4355 0.6617 16.5037C0.934176 16.5436 1.33757 16.6099 1.87423 16.7051C2.93854 16.8939 4.33843 17.1628 5.88908 17.4712C8.98015 18.0862 12.5145 18.8276 14.8238 19.3224L18.1762 3.67758C15.8189 3.17243 12.2032 2.41382 9.01092 1.77876C7.41991 1.46224 5.8948 1.16857 4.66952 0.951159C4.06139 0.843256 3.47884 0.745503 2.97658 0.672063C2.66859 0.627029 1.82265 0.5 1 0.5V16.5ZM15.2081 19.395C19.6677 20.1247 26.4314 21.3874 32.2016 22.787C35.1124 23.4931 37.57 24.1864 39.2973 24.8076C40.1776 25.1242 40.6491 25.3449 40.8231 25.4397C41.3729 25.7391 40.0498 25.2116 39.0541 23.4691L52.9459 15.5309C51.5502 13.0884 49.2917 11.8328 48.4749 11.388C47.2824 10.7387 45.9562 10.1992 44.7121 9.75174C42.1904 8.84484 39.0918 7.99439 35.9734 7.23796C29.6852 5.71264 22.499 4.37525 17.7919 3.605L15.2081 19.395ZM39.0541 23.4691C39.73 24.6521 40.55 26.5469 41.2317 28.4214C41.5591 29.3218 41.8117 30.0999 41.9701 30.6484C42.0508 30.9282 42.0875 31.0807 42.0966 31.1225C42.1012 31.1434 42.0865 31.0804 42.0676 30.9562C42.0562 30.8807 42 30.5145 42 30H58C58 28.9312 57.7894 27.9869 57.7237 27.688C57.6157 27.1966 57.4804 26.689 57.3424 26.211C57.0633 25.2439 56.6909 24.1157 56.2683 22.9536C55.45 20.7031 54.27 17.8479 52.9459 15.5309L39.0541 23.4691ZM42 30C42 30.4821 41.9887 32.3063 42.2854 34.1852C42.4289 35.094 42.7116 36.4861 43.3583 37.8993C43.9218 39.1305 45.4726 41.9236 48.9702 43.0895L54.0298 27.9105C55.4105 28.3707 56.3646 29.159 56.9458 29.8034C57.4999 30.4178 57.784 30.9719 57.9073 31.2413C58.1321 31.7326 58.1336 31.9685 58.0896 31.6898C58.0113 31.1937 58 30.5179 58 30H42ZM48.9702 43.0895C47.7535 42.6839 47.0063 42.0801 46.9085 42.0034C46.6872 41.83 46.5817 41.7183 46.6145 41.7513C46.674 41.8114 46.8759 42.0305 47.2272 42.4672C47.9084 43.3141 48.7877 44.5241 49.6784 45.8458C50.5664 47.1636 51.369 48.4485 51.9175 49.4193C52.1991 49.9178 52.3477 50.2175 52.4015 50.337C52.4304 50.4011 52.3809 50.301 52.3103 50.083C52.2735 49.9694 52.2082 49.7542 52.1476 49.4633C52.0928 49.1996 52 48.679 52 48H68C68 46.6259 67.6551 45.5335 67.5318 45.1529C67.3579 44.616 67.1565 44.136 66.991 43.7684C66.6562 43.0247 66.2462 42.2541 65.8482 41.5494C65.0372 40.114 63.9961 38.4614 62.9466 36.9042C61.8998 35.3509 60.7478 33.7484 59.6946 32.4391C59.1787 31.7977 58.5877 31.1027 57.9773 30.487C57.6751 30.1821 57.2655 29.792 56.7768 29.4092C56.4117 29.123 55.434 28.3786 54.0298 27.9105L48.9702 43.0895ZM52 48C52 50.465 53.0868 52.1869 53.5555 52.8542C54.113 53.6479 54.7063 54.2162 55.0763 54.5456C55.8323 55.2185 56.6464 55.7586 57.2474 56.1329C58.5156 56.9228 60.0749 57.7312 61.5574 58.4538C64.5852 59.9295 68.1364 61.4533 70.4816 62.4087L76.5184 47.5913C74.3636 46.7134 71.1648 45.3371 68.5676 44.0712C67.2376 43.423 66.2656 42.9002 65.7058 42.5515C65.3927 42.3565 65.4685 42.3755 65.7147 42.5946C65.8298 42.6971 66.2254 43.0553 66.6488 43.6582C66.9835 44.1347 68 45.685 68 48H52ZM69.5309 61.9459L87.0056 71.9315L94.9439 58.0396L77.4691 48.0541L69.5309 61.9459ZM93.3506 78.2459C94.9896 81.1532 96.9709 84.7724 98.5241 87.8367C99.3071 89.3815 99.9282 90.6814 100.335 91.633C100.542 92.1162 100.644 92.3954 100.681 92.5076C100.799 92.8703 100.5 92.1542 100.5 91H116.5C116.5 89.4084 116.049 88.0276 115.89 87.5392C115.648 86.8 115.346 86.0413 115.046 85.3404C114.44 83.924 113.641 82.2712 112.796 80.6032C111.092 77.2417 108.983 73.3943 107.288 70.3884L93.3506 78.2459ZM100.5 91C100.5 92.0876 100.737 93.1502 100.78 93.356C100.885 93.863 101.023 94.4481 101.176 95.0612C101.483 96.3003 101.915 97.9145 102.429 99.7769C103.461 103.516 104.881 108.452 106.447 113.808C109.581 124.529 113.339 137.056 115.844 145.32L131.156 140.68C128.661 132.444 124.919 119.971 121.803 109.317C120.244 103.985 118.852 99.1407 117.852 95.52C117.351 93.7027 116.962 92.2427 116.703 91.2025C116.572 90.6759 116.491 90.3201 116.447 90.1086C116.341 89.5959 116.5 90.1624 116.5 91H100.5ZM116.057 145.932L122.557 162.432L137.443 156.568L130.943 140.068L116.057 145.932ZM122.371 161.909L125.371 171.409L140.629 166.591L137.629 157.091L122.371 161.909ZM125.615 172.077L127.441 176.458L142.21 170.304L140.385 165.923L125.615 172.077ZM127.741 179.587L130.615 196.352L146.385 193.648L143.511 176.884L127.741 179.587ZM130.602 196.274L135.602 227.274L151.398 224.726L146.398 193.726L130.602 196.274ZM135.754 227.999L137.905 236.336L153.398 232.338L151.246 224.001L135.754 227.999ZM140.318 249.694L141.544 261.337L157.456 259.663L156.23 248.019L140.318 249.694ZM141.552 261.408L143.048 274.501L158.945 272.684L157.448 259.592L141.552 261.408ZM144.892 284.326L145.469 286.517L160.942 282.445L160.366 280.254L144.892 284.326ZM146.287 291.275L146.366 292.229L162.311 290.9L162.232 289.946L146.287 291.275ZM147.21 297.324L147.305 297.705L162.827 293.825L162.732 293.444L147.21 297.324ZM148.957 302.438L149.146 302.853L163.711 296.232L163.523 295.818L148.957 302.438ZM151.185 314.486L153.371 321.409L168.629 316.591L166.442 309.668L151.185 314.486ZM153.178 320.676L154.678 327.676L170.322 324.324L168.822 317.324L153.178 320.676ZM154.609 327.315L155.609 333.315L171.391 330.685L170.391 324.685L154.609 327.315ZM149.146 302.853C149.709 304.092 150 305.437 150 306.798H166C166 303.153 165.22 299.55 163.711 296.232L149.146 302.853ZM147.305 297.705C147.711 299.33 148.264 300.914 148.957 302.438L163.523 295.818C163.231 295.176 162.998 294.509 162.827 293.825L147.305 297.705ZM146.366 292.229C146.51 293.947 146.792 295.651 147.21 297.324L162.732 293.444C162.523 292.609 162.383 291.758 162.311 290.9L146.366 292.229ZM145.469 286.517C145.879 288.076 146.153 289.668 146.287 291.275L162.232 289.946C162.021 287.413 161.589 284.903 160.942 282.445L145.469 286.517ZM127.5 176.754C127.5 177.703 127.581 178.651 127.741 179.587L143.511 176.884C143.504 176.841 143.5 176.797 143.5 176.754H127.5ZM150 306.798C150 309.406 150.4 311.999 151.185 314.486L166.442 309.668C166.149 308.739 166 307.771 166 306.798H150ZM127.441 176.458C127.48 176.552 127.5 176.652 127.5 176.754H143.5C143.5 174.54 143.062 172.348 142.21 170.304L127.441 176.458ZM143.048 274.501C143.427 277.816 144.043 281.099 144.892 284.326L160.366 280.254C159.711 277.768 159.236 275.238 158.945 272.684L143.048 274.501ZM91.2698 75.3697C92.0872 76.2779 92.7844 77.2416 93.3506 78.2459L107.288 70.3884C106.113 68.3042 104.717 66.3933 103.162 64.6662L91.2698 75.3697ZM137.905 236.336C139.038 240.723 139.844 245.188 140.318 249.694L156.23 248.019C155.674 242.73 154.727 237.488 153.398 232.338L137.905 236.336ZM87.0056 71.9315C88.601 72.8432 90.0406 74.0038 91.2698 75.3697L103.162 64.6662C100.793 62.0338 98.0188 59.7967 94.9439 58.0396L87.0056 71.9315Z" fill="#74C0FC"/>
</svg>
