<svg width="153" height="366" viewBox="0 0 153 366" fill="none" xmlns="http://www.w3.org/2000/svg">
<path d="M19 60.5L25.5632 55.9257C25.5101 55.8495 25.4557 55.7743 25.4 55.7L19 60.5ZM30.5 77L23.9368 81.5743C24.147 81.8759 24.3776 82.1625 24.6272 82.4323L30.5 77ZM49 97L43.1272 102.432C43.1445 102.451 43.1618 102.47 43.1793 102.488L49 97ZM84.5 128.5L79.7544 134.94C79.7616 134.946 79.7687 134.951 79.7759 134.956L84.5 128.5ZM105 143.5L100.276 149.956L100.284 149.962L105 143.5ZM143.5 190L135.911 192.53L143.5 190ZM145 228.5L152.996 228.764C153 228.638 153.001 228.513 152.999 228.387L145 228.5ZM143.5 274L151.484 274.499C151.489 274.421 151.493 274.342 151.496 274.264L143.5 274ZM141.5 306L149.47 306.687C149.476 306.624 149.48 306.562 149.484 306.499L141.5 306ZM139 335L146.951 335.883C146.958 335.818 146.965 335.753 146.97 335.687L139 335ZM128.549 356.617C128.061 361.008 131.225 364.963 135.617 365.451C140.008 365.939 143.963 362.775 144.451 358.383L128.549 356.617ZM59.3169 107.942L53.4962 113.43L59.3169 107.942ZM72.756 119.847L77.5016 113.406L72.756 119.847ZM33.5289 0.572186C29.5773 2.15281 23.5106 4.82883 18.0355 7.78619C15.3084 9.25922 12.5535 10.8952 10.2312 12.5873C8.22019 14.0526 5.37513 16.3612 3.84458 19.4223L18.1554 26.5777C17.8249 27.2388 17.8298 26.8474 19.6532 25.5189C21.1652 24.4173 23.2291 23.1658 25.6395 21.8638C30.4394 19.2712 35.9227 16.8472 39.4711 15.4278L33.5289 0.572186ZM3.84458 19.4223C2.59637 21.9187 1.77155 24.5263 1.21942 26.8444L16.784 30.5516C17.1453 29.0347 17.611 27.6665 18.1554 26.5777L3.84458 19.4223ZM11.9289 64.4052L12.6 65.3L25.4 55.7L24.7289 54.8052L11.9289 64.4052ZM12.4368 65.0743L23.9368 81.5743L37.0632 72.4257L25.5632 55.9257L12.4368 65.0743ZM24.6272 82.4323L43.1272 102.432L54.8728 91.5677L36.3728 71.5677L24.6272 82.4323ZM43.1793 102.488L53.4962 113.43L65.1377 102.454L54.8207 91.5119L43.1793 102.488ZM68.0104 126.287L79.7544 134.94L89.2456 122.06L77.5016 113.406L68.0104 126.287ZM79.7759 134.956L100.276 149.956L109.724 137.044L89.2241 122.044L79.7759 134.956ZM100.284 149.962L118.784 163.462L128.216 150.538L109.716 137.038L100.284 149.962ZM131.975 182.614C134.015 187.624 135.607 191.62 135.911 192.53L151.089 187.47C150.575 185.927 148.703 181.27 146.794 176.581L131.975 182.614ZM135.911 192.53C135.676 191.828 135.716 191.538 135.827 192.653C135.903 193.413 135.982 194.482 136.062 195.835C136.221 198.528 136.365 202.074 136.492 205.972C136.744 213.753 136.918 222.726 137.001 228.613L152.999 228.387C152.915 222.441 152.74 213.364 152.483 205.453C152.355 201.506 152.206 197.795 152.035 194.893C151.949 193.449 151.855 192.136 151.748 191.063C151.676 190.345 151.524 188.772 151.089 187.47L135.911 192.53ZM137.004 228.236L135.504 273.736L151.496 274.264L152.996 228.764L137.004 228.236ZM135.516 273.501L133.516 305.501L149.484 306.499L151.484 274.499L135.516 273.501ZM133.53 305.313L131.03 334.313L146.97 335.687L149.47 306.687L133.53 305.313ZM131.049 334.117L128.549 356.617L144.451 358.383L146.951 335.883L131.049 334.117ZM118.133 162.932C124.176 168.4 128.923 175.117 131.975 182.614L146.794 176.581C142.815 166.808 136.652 158.111 128.867 151.068L118.133 162.932ZM2.71502 46.409C4.73983 52.8883 7.85589 58.9745 11.9289 64.4052L24.7289 54.8052C21.7485 50.8313 19.4683 46.3778 17.9867 41.6366L2.71502 46.409ZM53.4962 113.43C57.939 118.142 62.7966 122.445 68.0104 126.287L77.5016 113.406C73.0602 110.134 68.9223 106.468 65.1377 102.454L53.4962 113.43ZM1.21942 26.8444C-0.49815 34.0557 1.02592 41.0038 2.71502 46.409L17.9867 41.6366C16.5594 37.0691 16.0808 33.5043 16.784 30.5516L1.21942 26.8444Z" fill="#74C0FC"/>
</svg>
