<svg width="327" height="174" viewBox="0 0 327 174" fill="none" xmlns="http://www.w3.org/2000/svg">
<path d="M5 129C12.6372 123.446 29.4138 113.68 44.0526 111.964C49.3243 111.346 53.4486 109.587 58.6353 108.46V108.46C64.2369 107.242 71.4588 111.357 77.0504 110.094C84.4461 108.424 93.2249 106.175 99.2497 103.918C102.272 102.786 105.924 103.636 107.714 106.321V106.321C108.829 107.993 110.696 108.999 112.705 108.947C131.457 108.468 161.145 104.821 175.377 94.1165C184.067 87.5803 185.285 75.2335 189.604 65.254C191.267 61.4119 192.642 58.6417 193 59C193.586 59.586 194.566 55.1997 195.31 51.108C195.8 48.4115 196.817 45.8321 198.389 43.5868V43.5868C199.128 42.532 199.75 41.4005 200.245 40.2119L203.574 32.2224C204.148 30.8444 205.43 29.7952 206.896 30.0791C207.977 30.2887 209.136 30.7533 210.126 31.6228C211.767 33.064 214.748 34.0023 216.209 32.3791V32.3791C216.711 31.8213 216.931 31.0729 216.902 30.3231C216.795 27.6152 217.397 23.5344 220.5 22.5C225 21 226 20.5 226.5 17C227 13.5 231.5 8.49999 241.5 8.99999C241.792 9.01459 242.079 9.02963 242.36 9.0451C253.866 9.67817 266.731 9.55954 276.534 15.6183C278.31 16.7161 279.852 18.1466 280.96 19.9928C281.35 20.6433 281.646 21.2916 282.266 21.7282V21.7282C283.746 22.7701 285.684 19.988 287.043 21.1845C287.374 21.4767 287.701 21.9012 288 22.5V22.5C288.953 24.4052 287.578 27.7416 289.368 26.5868C289.411 26.559 289.455 26.5301 289.5 26.5C289.608 26.428 289.714 26.3632 289.819 26.3051C292.817 24.6426 298.352 30.5985 295.5 32.5V32.5C294 33.5 292.5 35.5 296.5 35.5C298.762 35.5 300.492 37.3327 301.546 39.0545C302.3 40.2853 302.603 41.7201 302.807 43.1489L303.029 44.7005C303.339 46.8708 304.176 48.923 305.273 50.821C305.447 51.1224 305.621 51.4318 305.793 51.7463C308.062 55.9042 311.221 60.8278 312 65.5V65.5V65.5C312.371 67.7269 311.424 70.4602 312.027 72.6359C312.253 73.4542 312.569 74.2809 313 75C313.367 75.6109 313.742 76.424 314.102 77.3109C315.598 81.0014 316 85.0178 316 89V89V89C316 90.9088 315 92.0319 315 93.9407V96C314.833 97.5 315 100.8 317 102C319 103.2 318.5 112.5 318 117V117C317.668 123.636 319.465 131.11 315.986 136.77C315.347 137.81 314.401 138.753 313 139.5C307.138 142.626 308.435 141.553 302.902 143.367C302.638 143.454 302.359 143.5 302.081 143.5V143.5C300.656 143.5 299.491 144.667 299.159 146.053C298.93 147.007 298.565 148.059 298 149C296.8 151 296.833 167 297 173" stroke="#74C0FC" stroke-width="16"/>
</svg>
